<svg xmlns="http://www.w3.org/2000/svg" width="119.535" height="32.142" viewBox="0 0 119.535 32.142"><defs><style>.a{font-size:14px;font-family:VentiCF-DemiBold, Venti CF;font-weight:300;letter-spacing:0.04em;}.b{letter-spacing:0.086em;}.c{letter-spacing:0.081em;}.d{fill:#071830;}.e{fill:#e8c223;}</style></defs><g transform="translate(-161.177 -421.159)"><g transform="translate(230.712 425.356)"><text class="a" transform="translate(0 14)"><tspan x="0" y="0">T</tspan><tspan class="b" y="0">r</tspan><tspan class="c" y="0">un</tspan><tspan class="b" y="0">kie</tspan></text></g><g transform="translate(161.177 421.159)"><path class="d" d="M386.273,538.125a12.8,12.8,0,0,1-1.727,1.967,11.118,11.118,0,0,0,5.283,1.357,9.488,9.488,0,0,0,2.086-.231A10.9,10.9,0,0,1,386.273,538.125Z" transform="translate(-345.037 -517.435)"/><path class="e" d="M402.682,434.9a.509.509,0,0,0,.718.058l3.3-2.811a.51.51,0,0,0-.661-.776l-3.3,2.811A.51.51,0,0,0,402.682,434.9Z" transform="translate(-359.865 -429.467)"/><path class="e" d="M396.691,426.807l3.149-2.68a.51.51,0,1,0-.661-.776l-3.149,2.68a.51.51,0,1,0,.661.776Z" transform="translate(-354.342 -422.863)"/><path class="e" d="M398.048,421.36a1.443,1.443,0,0,0-1.709.178,1.42,1.42,0,0,0-.343,1.607Z" transform="translate(-354.365 -421.159)"/><path class="d" d="M211.1,426.514a6.753,6.753,0,1,1-7.331,8.112c-.029-.231-.066-.46-.108-.687-.028-.148-.059-.294-.092-.44l-.015-.065c-.029-.125-.061-.249-.094-.373-.012-.046-.025-.093-.038-.139-.029-.1-.059-.2-.09-.3q-.04-.127-.082-.253c-.022-.067-.045-.134-.069-.2s-.058-.161-.089-.241a11.863,11.863,0,0,0-22.955,4.205q0,.166,0,.33a11.885,11.885,0,0,1,.968-9.96,15.079,15.079,0,1,0,8.514,21.254,11.878,11.878,0,0,0,11.909-4.567,8.1,8.1,0,0,1-1.425-4.572c0-.259.013-.516.037-.772a8.519,8.519,0,0,0,2.17,4.148,10.989,10.989,0,0,0,7.927,3.393,9.455,9.455,0,0,0,9.429-8.76q.025-.344.025-.694a9.455,9.455,0,0,0-8.6-9.415Zm-45.2,11.78a14.255,14.255,0,0,0,3.854,13.167,13.081,13.081,0,0,1,7.809-24.242A14.209,14.209,0,0,0,165.9,438.293Zm18.146-5.416a10.873,10.873,0,0,0,1.254,10.389A9.978,9.978,0,0,1,194.2,426a10.838,10.838,0,0,0-10.16,6.875Zm14.817-1.1a.792.792,0,0,0-.6.3,1.146,1.146,0,0,1-1.784.193c-.809-.714-1.9.6-2.025.759.137-.173,1.382-1.705,2.53-1.862a3.2,3.2,0,0,1,1.911.406.108.108,0,0,1-.036.2Z" transform="translate(-161.177 -423.715)"/></g></g></svg>